<svg width="60" height="60" viewBox="0 0 60 60" fill="none" xmlns="http://www.w3.org/2000/svg">
<rect width="60" height="60" rx="20" fill="white"/>
<path d="M34.7927 40.2627V42.2365C34.7927 43.7524 33.5453 44.9999 32.0294 44.9999H28.0817C26.7553 44.9999 25.3184 43.9893 25.3184 41.7786V40.2627H34.7927Z" fill="#E1E5F0"/>
<path d="M37.0191 17.4612C34.4295 15.361 31.0187 14.5399 27.6869 15.2505C23.5024 16.119 20.1074 19.5297 19.2389 23.7143C18.3546 28.0093 19.9653 32.2728 23.4076 34.8782C24.3393 35.573 24.9867 36.6468 25.2077 37.8942V37.91C25.2393 37.8942 25.2867 37.8942 25.3183 37.8942H34.7926C34.8242 37.8942 34.84 37.8942 34.8716 37.91V37.8942C35.0927 36.6941 35.8032 35.5888 36.8928 34.7361C39.5614 32.6202 41.1089 29.462 41.1089 26.0513C41.1089 22.7037 39.6246 19.5771 37.0191 17.4612ZM35.9769 26.8408C35.3295 26.8408 34.7926 26.3039 34.7926 25.6565C34.7926 23.2563 32.8504 21.3141 30.4502 21.3141C29.8028 21.3141 29.2659 20.7772 29.2659 20.1298C29.2659 19.4824 29.8028 18.9455 30.4502 18.9455C34.1452 18.9455 37.1612 21.9615 37.1612 25.6565C37.1612 26.3039 36.6243 26.8408 35.9769 26.8408Z" fill="#CBD2E5"/>
</svg>
