<svg width="60" height="60" viewBox="0 0 60 60" fill="none" xmlns="http://www.w3.org/2000/svg">
<rect width="60" height="60" rx="20" fill="#FFFDE8"/>
<path d="M36.2502 30C36.2502 33.4517 33.4518 36.25 30.0001 36.25C26.5483 36.25 23.75 33.4517 23.75 30C23.75 26.5482 26.5483 23.7499 30.0001 23.7499C33.4518 23.7499 36.2502 26.5482 36.2502 30Z" fill="#F2BF4D"/>
<path d="M43.7501 28.7501H42.4363C41.8488 22.8539 37.1461 18.1512 31.2499 17.5637V16.2499C31.2499 15.5601 30.6912 15 30 15C29.3088 15 28.7501 15.5601 28.7501 16.2499V17.5637C22.8539 18.1512 18.1512 22.8539 17.5637 28.7501H16.2499C15.5587 28.7501 15 29.3099 15 30C15 30.6901 15.5587 31.2499 16.2499 31.2499H17.5637C18.1524 37.1461 22.8539 41.8488 28.7501 42.4363V43.7501C28.7501 44.4399 29.3088 45 30 45C30.6912 45 31.2499 44.4399 31.2499 43.7501V42.4363C37.1461 41.8476 41.8488 37.1461 42.4363 31.2499H43.7501C44.4413 31.2499 45 30.6901 45 30C45 29.3099 44.4413 28.7501 43.7501 28.7501ZM31.2325 39.9163C31.1874 39.2674 30.6612 38.7499 30 38.7499C29.3388 38.7499 28.8126 39.2674 28.7675 39.9163C24.24 39.3562 20.6449 35.7612 20.0851 31.2337C20.7337 31.1874 21.2501 30.6601 21.2501 30C21.2501 29.3399 20.7337 28.8126 20.0837 28.7675C20.6438 24.24 24.2388 20.6449 28.7663 20.0851C28.8126 20.7326 29.3388 21.2501 30 21.2501C30.6612 21.2501 31.1874 20.7326 31.2325 20.0837C35.76 20.6438 39.3551 24.2388 39.9149 28.7663C39.2663 28.8126 38.7499 29.3399 38.7499 30C38.7499 30.6601 39.2663 31.1874 39.9163 31.2325C39.3551 35.7612 35.7612 39.3551 31.2325 39.9163Z" fill="#F2BF4D"/>
</svg>
