<svg width="80" height="82" viewBox="0 0 80 82" fill="none" xmlns="http://www.w3.org/2000/svg">
<circle cx="40" cy="42" r="40" fill="url(#paint0_radial_71_321)"/>
<rect x="10" width="60" height="60" rx="20" fill="white"/>
<path d="M54.2941 26.5842L51.9884 26.0829C51.7879 25.4691 51.5395 24.8703 51.2463 24.2935L52.5228 22.308C52.7508 21.9532 52.7007 21.4874 52.4026 21.1894L48.8106 17.5974C48.5126 17.2993 48.0468 17.2492 47.692 17.4772L45.7065 18.7537C45.1297 18.4605 44.5309 18.2121 43.9171 18.0116L43.4158 15.7059C43.3263 15.2939 42.9615 15 42.5399 15H37.4601C37.0385 15 36.6737 15.2939 36.5842 15.7059L36.0829 18.0116C35.4691 18.2121 34.8703 18.4605 34.2935 18.7537L32.308 17.4772C31.9532 17.2492 31.4874 17.2993 31.1894 17.5974L27.5974 21.1894C27.2993 21.4874 27.2492 21.9532 27.4772 22.308L28.7537 24.2935C28.4605 24.8703 28.2121 25.4691 28.0116 26.0829L25.7059 26.5842C25.2939 26.6739 25 27.0385 25 27.4601V32.5399C25 32.9615 25.2939 33.3261 25.7059 33.4158L28.0116 33.9171C28.2121 34.5309 28.4605 35.1297 28.7537 35.7065L27.4772 37.692C27.2492 38.0468 27.2993 38.5126 27.5974 38.8106L31.1894 42.4026C31.4874 42.7007 31.9532 42.7508 32.308 42.5228L34.2935 41.2463C34.8703 41.5395 35.4691 41.7879 36.0829 41.9884L36.5842 44.2941C36.6737 44.7061 37.0385 45 37.4601 45H42.5399C42.9615 45 43.3263 44.7061 43.4158 44.2941L43.9171 41.9884C44.5309 41.7879 45.1297 41.5395 45.7065 41.2463L47.692 42.5228C48.0468 42.7508 48.5126 42.7009 48.8106 42.4026L52.4026 38.8106C52.7007 38.5126 52.7508 38.0468 52.5228 37.692L51.2463 35.7065C51.5395 35.1297 51.7879 34.5309 51.9884 33.9171L54.2941 33.4158C54.7061 33.3261 55 32.9615 55 32.5399V27.4601C55 27.0385 54.7061 26.6739 54.2941 26.5842ZM40 37.1713C36.0458 37.1713 32.8287 33.9542 32.8287 30C32.8287 26.0458 36.0458 22.8287 40 22.8287C43.9542 22.8287 47.1713 26.0458 47.1713 30C47.1713 33.9542 43.9542 37.1713 40 37.1713Z" fill="#E0E4F0"/>
<path d="M54.2944 26.5842L51.9887 26.0829C51.7882 25.4691 51.5399 24.8703 51.2467 24.2935L52.5231 22.308C52.7511 21.9532 52.701 21.4874 52.403 21.1894L48.8109 17.5974C48.5129 17.2993 48.0471 17.2492 47.6924 17.4772L45.7068 18.7537C45.13 18.4605 44.5313 18.2121 43.9174 18.0116L43.4162 15.7059C43.3267 15.2939 42.9618 15 42.5402 15H39.8623V22.8305C39.9083 22.8296 39.9541 22.8287 40.0003 22.8287C43.9545 22.8287 47.1716 26.0458 47.1716 30C47.1716 33.9542 43.9545 37.1713 40.0003 37.1713C39.9541 37.1713 39.9083 37.1704 39.8623 37.1695V45H42.5402C42.9618 45 43.3267 44.7061 43.4162 44.2941L43.9174 41.9884C44.5313 41.7879 45.13 41.5395 45.7068 41.2463L47.6924 42.5228C48.0471 42.7508 48.5129 42.7009 48.8109 42.4026L52.403 38.8106C52.701 38.5126 52.7511 38.0468 52.5231 37.692L51.2467 35.7065C51.5399 35.1297 51.7882 34.5309 51.9887 33.9171L54.2944 33.4158C54.7064 33.3261 55.0003 32.9615 55.0003 32.5399V27.4601C55.0003 27.0385 54.7064 26.6739 54.2944 26.5842Z" fill="#CBD2E5"/>
<defs>
<radialGradient id="paint0_radial_71_321" cx="0" cy="0" r="1" gradientUnits="userSpaceOnUse" gradientTransform="translate(40 42) rotate(90) scale(40)">
<stop stop-color="#CBD2E5"/>
<stop offset="1" stop-color="#CBD2E5" stop-opacity="0"/>
</radialGradient>
</defs>
</svg>
