<svg width="60" height="60" viewBox="0 0 60 60" fill="none" xmlns="http://www.w3.org/2000/svg">
<rect width="60" height="60" rx="20" fill="white"/>
<path d="M30.0004 34.3176C32.5512 34.3176 34.619 32.2498 34.619 29.699C34.619 27.1482 32.5512 25.0804 30.0004 25.0804C27.4496 25.0804 25.3818 27.1482 25.3818 29.699C25.3818 32.2498 27.4496 34.3176 30.0004 34.3176Z" fill="#C4CBDF"/>
<path d="M44.5399 28.4196C40.9897 24.1296 35.6157 20 30.0001 20C24.3833 20 19.0081 24.1325 15.4603 28.4196C14.8466 29.1609 14.8466 30.237 15.4603 30.9783C16.3522 32.0562 18.2222 34.1368 20.7197 35.9548C27.0095 40.5337 32.9768 40.5438 39.2805 35.9548C41.778 34.1368 43.6479 32.0562 44.5399 30.9783C45.1518 30.2385 45.155 29.1633 44.5399 28.4196ZM30.0001 23.233C33.5656 23.233 36.4661 26.1334 36.4661 29.699C36.4661 33.2645 33.5656 36.165 30.0001 36.165C26.4345 36.165 23.5341 33.2645 23.5341 29.699C23.5341 26.1334 26.4345 23.233 30.0001 23.233Z" fill="#D9DEE8"/>
</svg>
