<svg width="60" height="60" viewBox="0 0 60 60" fill="none" xmlns="http://www.w3.org/2000/svg">
<rect width="60" height="60" rx="20" fill="#FFEBF7"/>
<path d="M30.0788 15C23.4185 15 18 20.4185 18 27.0788C18 29.434 18.6216 31.8343 19.8475 34.213C20.8134 36.0869 22.1553 37.9518 23.8358 39.7561C26.6787 42.8085 29.4867 44.6207 29.6048 44.6965L30.0788 45L30.5528 44.6965C30.6709 44.6207 33.4788 42.8085 36.3218 39.7561C38.0024 37.9518 39.3441 36.0869 40.3098 34.213C41.5359 31.8343 42.1576 29.434 42.1576 27.0788C42.1576 20.4185 36.739 15 30.0788 15ZM30.0788 20.2732C33.8315 20.2732 36.8844 23.3263 36.8844 27.0788C36.8844 30.8313 33.8313 33.8844 30.0788 33.8844C26.3263 33.8844 23.2734 30.8313 23.2734 27.0788C23.2734 23.3263 26.3263 20.2732 30.0788 20.2732Z" fill="#AF8BE1"/>
<path d="M35.1268 27.0788C35.1268 29.8665 32.8668 32.1265 30.079 32.1265C27.2912 32.1265 25.0312 29.8665 25.0312 27.0788C25.0312 24.291 27.2912 22.031 30.079 22.031C32.8668 22.031 35.1268 24.291 35.1268 27.0788Z" fill="#AF8BE1"/>
</svg>
