<svg width="60" height="60" viewBox="0 0 60 60" fill="none" xmlns="http://www.w3.org/2000/svg">
<rect width="60" height="60" rx="20" fill="#FFF0F9"/>
<path d="M20.1985 30.0054C20.1985 25.7728 22.8184 22.1412 26.5214 20.6456L28.4109 16.8503C21.9697 17.7654 17 23.3154 17 30.0054C17 36.0919 21.1137 41.2355 26.7066 42.8027L27.07 39.5689C23.0797 38.2225 20.1985 34.4441 20.1985 30.0054Z" fill="#F377BF"/>
<path d="M43.5763 30.0053C43.5763 23.9199 39.4644 18.7774 33.8734 17.209L33.5018 20.4404C37.4945 21.7855 40.3779 25.5649 40.3779 30.0053C40.3779 34.2132 37.7884 37.827 34.1196 39.3387L32.1777 43.1585C38.6129 42.2383 43.5763 36.691 43.5763 30.0053Z" fill="#F377BF"/>
<path d="M37.8944 28.395C38.0204 28.1472 38.0085 27.8751 37.863 27.6382C37.7177 27.4012 37.4596 27.3068 37.1816 27.3068H31.1024L32.4111 15.9296C32.4556 15.5438 32.2166 15.1442 31.8441 15.0337C31.7673 15.0109 31.6894 15 31.6126 15C31.3173 15 31.0382 15.168 30.9008 15.444L22.6795 31.9636C22.5561 32.2114 22.5697 32.5413 22.7155 32.7768C22.8613 33.0122 23.1184 33.2039 23.3953 33.2039H29.3943L28.1645 44.1529C28.1215 44.5371 28.3595 44.8603 28.7299 44.971C28.806 44.9938 28.8831 45 28.9591 45C29.2538 45 29.5329 44.8364 29.6721 44.5624L37.8944 28.395Z" fill="#F377BF"/>
</svg>
