<svg width="60" height="61" viewBox="0 0 60 61" fill="none" xmlns="http://www.w3.org/2000/svg">
<rect width="60" height="60.24" rx="20" fill="url(#paint0_linear_71_318)"/>
<path d="M22.4742 31.9257V28.6894C22.4742 28.5427 22.39 28.4095 22.2573 28.347C22.1252 28.285 21.9683 28.3046 21.8554 28.3979L15.1372 33.9451C15.0504 34.0167 15 34.1236 15 34.2366C15 34.3495 15.0504 34.4565 15.1372 34.5281L21.8549 40.0757C21.9678 40.1695 22.1247 40.1887 22.2568 40.1267C22.3895 40.0641 22.4737 39.931 22.4737 39.7842V36.7845C25.4296 37.4204 27.6078 40.0737 27.6078 43.1294V44.4377C27.6078 44.6465 27.7772 44.8159 27.986 44.8159H32.0207C32.2295 44.8159 32.3989 44.6465 32.3989 44.4377V43.1294C32.3989 37.4603 28.0667 32.6051 22.4737 31.9252L22.4742 31.9257Z" fill="white" fill-opacity="0.5"/>
<path d="M44.8707 28.9825L38.153 23.4348C38.0395 23.3415 37.8832 23.3218 37.751 23.3839C37.6184 23.4464 37.5342 23.5796 37.5342 23.7263V26.9117C35.6984 27.0297 33.9428 27.6223 32.4001 28.6415V22.2834H35.5521C35.6989 22.2834 35.832 22.1992 35.8946 22.0666C35.9571 21.9339 35.9369 21.7776 35.8436 21.6646L30.2955 14.9464C30.1523 14.7724 29.8557 14.7724 29.7125 14.9464L24.1648 21.6641C24.0715 21.7771 24.0519 21.9339 24.1139 22.0661C24.1764 22.1987 24.3096 22.2829 24.4563 22.2829H27.6084V33.0226C29.7881 34.4378 31.4852 36.5242 32.3996 38.9657V37.488C32.3996 34.52 34.6247 32.0579 37.5336 31.7179V34.8216C37.5336 34.9684 37.6179 35.1015 37.7505 35.164C37.8832 35.2266 38.0395 35.2069 38.1525 35.1131L44.8702 29.5655C44.9569 29.4938 45.0073 29.3869 45.0073 29.274C45.0073 29.161 44.9574 29.0541 44.8707 28.9825Z" fill="white"/>
<defs>
<linearGradient id="paint0_linear_71_318" x1="44" y1="49.8159" x2="11.5" y2="5.81592" gradientUnits="userSpaceOnUse">
<stop stop-color="#EA55AD"/>
<stop offset="1" stop-color="#FFADDE"/>
</linearGradient>
</defs>
</svg>
