<svg width="60" height="60" viewBox="0 0 60 60" fill="none" xmlns="http://www.w3.org/2000/svg">
<rect width="60" height="60" rx="20" fill="white"/>
<path d="M28.0343 15.0513L25.3451 15.0523C22.8947 15.0523 20.9008 17.046 20.9008 19.4966C20.9008 19.8137 20.9373 20.1357 21.0093 20.4571C18.5867 21.2205 16.9139 23.4859 16.9139 26.0448C16.9139 27.0007 17.1506 27.942 17.5943 28.7817C16.6106 29.7566 16 31.1078 16 32.5992C16 35.0333 17.6258 37.0937 19.8484 37.7541C19.7702 38.0582 19.7289 38.3707 19.7289 38.6875C19.7289 40.752 21.4084 42.4313 23.4726 42.4313C23.7071 42.4313 23.9435 42.4077 24.1797 42.3619C24.2675 43.8314 25.4903 45 26.9817 45C28.521 45 29.7887 43.7549 29.7887 42.2193C29.7887 42.2167 29.7887 42.2141 29.7887 42.2117V16.8057C29.7885 15.8383 29.002 15.0513 28.0343 15.0513Z" fill="#E1E5F0"/>
<path d="M44.983 32.5478C44.983 31.0567 44.3727 29.7055 43.3885 28.7302C43.8327 27.8909 44.0696 26.9494 44.0696 25.9937C44.0696 23.4348 42.3963 21.1692 39.9738 20.406C40.046 20.0846 40.0822 19.7623 40.0822 19.4455C40.0822 16.9949 38.0883 15.001 35.6374 15.001L32.9482 15C31.9808 15 31.1941 15.787 31.1941 16.7549V37.1554C31.1941 37.1779 31.1797 37.2005 31.1797 37.2254C31.1797 37.3164 31.1941 37.4059 31.1941 37.494V42.1411V42.1603V42.1874H31.195C31.2265 43.8281 32.4721 44.9429 34.0006 44.9429C35.492 44.9429 36.7155 43.777 36.8034 42.3077C37.0393 42.3538 37.2762 42.3787 37.5102 42.3787C39.5746 42.3787 41.2539 40.6999 41.2539 38.6359C41.2539 38.3189 41.2126 38.0066 41.1349 37.703C43.3573 37.0423 44.983 34.9819 44.983 32.5478Z" fill="#CBD2E5"/>
</svg>
