<svg width="108" height="67" viewBox="0 0 108 67" fill="none" xmlns="http://www.w3.org/2000/svg">
<path d="M72.9002 28.1568L72.4739 28.4004L68.8604 30.4914L68.5152 30.6944L67.5205 28.9688C67.7844 28.7658 68.0483 28.5425 68.2919 28.2989L71.2761 25.3147L72.3318 27.1418L72.8596 28.0553L72.9002 28.1568Z" fill="#01174F"/>
<path d="M82.1772 17.9868C83.172 18.9815 83.172 20.5853 82.1772 21.58L73.3261 30.4311C66.972 34.1056 61.0036 30.7357 59.7246 29.9236C62.5667 31.162 65.9772 30.6138 68.2915 28.2996L78.6043 17.9868C79.5787 16.992 81.1825 16.992 82.1772 17.9868Z" fill="#01174F"/>
<path fill-rule="evenodd" clip-rule="evenodd" d="M66.8305 26.8579L70.2004 23.488L58.7711 3.67443C57.4312 1.38045 55.056 0 52.3966 0C49.7575 0 47.3621 1.38045 46.0425 3.67443L35.4658 21.9857C37.6786 20.2601 40.2974 19.2045 43.0989 18.9203L50.4275 6.21203C51.0162 5.17669 52.0109 5.07519 52.3966 5.07519C52.7824 5.07519 53.7771 5.17669 54.3658 6.21203L66.4651 27.1827C66.5869 27.0812 66.7087 26.9797 66.8305 26.8579ZM39.8101 27.6295C47.301 21.316 54.9747 26.2084 55.7868 26.7566L53.1883 24.1784L53.168 24.1987C50.8131 22.0671 47.7883 20.8896 44.5807 20.8896C41.1702 20.8896 37.9424 22.2295 35.5266 24.6453L25.2138 34.9581C24.2191 35.9528 24.2191 37.5566 25.2138 38.5513C26.2086 39.546 27.8123 39.546 28.8071 38.5513L39.1198 28.2385C39.3432 28.0152 39.5665 27.8122 39.8101 27.6295ZM73.3266 30.4311L71.865 31.8928C69.4492 34.3086 66.2213 35.6484 62.8108 35.6484C59.38 35.6484 56.1725 34.3086 53.7364 31.8928L52.2341 30.3905L50.0822 28.2386C47.2807 25.4371 42.8552 25.2341 39.8101 27.6296C47.301 21.3161 54.9747 26.2086 55.7868 26.7567L57.3296 28.2996C58.0401 29.0101 58.8522 29.5582 59.7048 29.9236C60.5168 30.4311 63.1527 31.9378 66.5668 32.0994C63.1548 31.9377 60.5239 30.4311 59.7246 29.9236C62.5667 31.162 65.9772 30.6138 68.2915 28.2996L78.6043 17.9868C79.5787 16.992 81.1825 16.992 82.1772 17.9868C83.172 18.9815 83.172 20.5853 82.1772 21.58L73.3261 30.4311C71.868 31.2743 70.4302 31.7466 69.0647 31.9639C70.4305 31.7466 71.8684 31.2744 73.3266 30.4311Z" fill="#01174F"/>
<path d="M39.8103 27.6294C39.587 27.8121 39.3637 28.0151 39.1201 28.2384Z" fill="#01174F"/>
<path d="M55.8675 26.797C55.8675 26.797 55.8472 26.7766 55.8066 26.7563Z" fill="#01174F"/>
<path d="M59.7045 29.9229C59.5421 29.8214 59.4609 29.7605 59.4609 29.7605Z" fill="#01174F"/>
<path d="M2.94361 59.5624H0V50.2038C0 49.412 0.101504 48.6812 0.304511 48.0316C0.507519 47.382 0.852633 46.8338 1.29925 46.3669C1.74587 45.9 2.33459 45.5549 3.04511 45.291C3.75564 45.0474 4.62857 44.9053 5.66391 44.9053C6.69925 44.9053 7.57218 45.0271 8.30301 45.291C9.03383 45.5346 9.62256 45.9 10.0895 46.3669C10.5564 46.8338 10.8812 47.382 11.1045 48.0316C11.3075 48.6812 11.409 49.412 11.409 50.2038V59.5624H8.40451V54.4872H2.94361V59.5624ZM8.40451 52.3556V50.0414C8.40451 49.1278 8.2015 48.4173 7.79549 47.8692C7.38947 47.3414 6.67895 47.0571 5.66391 47.0571C4.64887 47.0571 3.93835 47.3211 3.53233 47.8692C3.12632 48.397 2.92331 49.1278 2.92331 50.0414V52.3556H8.40451Z" fill="#01174F"/>
<path d="M17.5397 43.728V59.5626H14.6367V43.728H17.5397Z" fill="#01174F"/>
<path d="M20.7674 49.6553C21.4373 49.432 22.1884 49.229 23.0614 49.0666C23.914 48.9042 24.7463 48.823 25.5583 48.823C26.2892 48.823 26.9794 48.9245 27.6087 49.1072C28.238 49.2899 28.7862 49.5944 29.2328 50.0207C29.6794 50.4471 30.0448 50.9952 30.3087 51.6651C30.5726 52.335 30.6944 53.1674 30.6944 54.1621C30.6944 55.238 30.5726 56.1516 30.3087 56.8621C30.0651 57.5929 29.72 58.1613 29.2734 58.5877C28.8268 59.014 28.3192 59.3185 27.7305 59.5012C27.1418 59.6839 26.4922 59.7651 25.8223 59.7651C25.4974 59.7651 25.132 59.7448 24.726 59.6839C24.32 59.6433 23.9749 59.5824 23.6501 59.5215V63.6019H20.7471V49.6553H20.7674ZM23.6704 57.4508C23.9952 57.532 24.32 57.5929 24.6042 57.6335C24.9087 57.6944 25.2132 57.7147 25.538 57.7147C25.8832 57.7147 26.1877 57.6538 26.4516 57.5523C26.7155 57.4508 26.9388 57.2478 27.1215 56.9839C27.3042 56.72 27.4463 56.3546 27.5275 55.908C27.629 55.4613 27.6696 54.8726 27.6696 54.1824C27.6696 53.5125 27.6087 52.9846 27.5275 52.5583C27.426 52.132 27.2839 51.8072 27.1012 51.5636C26.9185 51.32 26.6952 51.1576 26.411 51.0561C26.1471 50.9546 25.8426 50.914 25.5177 50.914C25.2335 50.914 24.9087 50.9343 24.5433 50.9952C24.1982 51.0561 23.8937 51.0967 23.6704 51.1576V57.4508Z" fill="#01174F"/>
<path d="M33.2324 43.728H36.1354V49.0874C36.5211 49.0062 36.8866 48.9453 37.2723 48.9047C37.658 48.8641 38.0437 48.8235 38.4091 48.8235C39.0587 48.8235 39.6678 48.8844 40.2159 49.0265C40.764 49.1483 41.2309 49.3716 41.6369 49.6558C42.0429 49.9604 42.3475 50.3461 42.5708 50.8333C42.7941 51.3205 42.9159 51.9295 42.9159 52.6401V59.5626H40.0129V52.7619C40.0129 52.0513 39.8302 51.5641 39.4445 51.3002C39.0587 51.0363 38.5918 50.9145 38.0234 50.9145C37.7392 50.9145 37.4144 50.9348 37.049 50.9957C36.7038 51.0566 36.3993 51.0972 36.1557 51.1581V59.5626H33.2527V43.728H33.2324Z" fill="#01174F"/>
<path d="M46.1034 49.2498C46.5703 49.128 47.1387 49.0468 47.7478 48.9656C48.3771 48.8844 48.9658 48.8438 49.5545 48.8438C50.2245 48.8438 50.8538 48.9047 51.4222 49.0265C52.0109 49.1483 52.5184 49.331 52.9448 49.6152C53.3711 49.8994 53.7162 50.2445 53.9801 50.6911C54.2237 51.1377 54.3658 51.6859 54.3658 52.3355V59.0347C54.1019 59.1159 53.7974 59.2174 53.4523 59.2986C53.1072 59.3798 52.7214 59.461 52.3154 59.5422C51.9094 59.6235 51.4831 59.6844 51.0568 59.725C50.6102 59.7656 50.1635 59.8062 49.7169 59.8062C49.0267 59.8062 48.3974 59.7453 47.8493 59.6438C47.3011 59.5422 46.8139 59.3392 46.4282 59.0753C46.0425 58.7911 45.738 58.446 45.535 57.9994C45.332 57.5528 45.2305 56.9843 45.2305 56.3144C45.2305 55.6851 45.332 55.1776 45.5553 54.7716C45.7786 54.3656 46.0628 54.0204 46.4485 53.7768C46.8342 53.5332 47.2808 53.3505 47.8087 53.249C48.3365 53.1475 48.8846 53.1069 49.4936 53.1069C49.8793 53.1069 50.2448 53.1272 50.5696 53.1475C50.8944 53.1678 51.1989 53.2287 51.4831 53.2693V52.437C51.4831 51.8483 51.3004 51.4422 50.935 51.2392C50.5696 51.0362 50.062 50.9347 49.4124 50.9347C48.9049 50.9347 48.3771 50.9753 47.7884 51.0362C47.2199 51.1174 46.7124 51.1986 46.2861 51.3001L46.1034 49.2498ZM51.4628 55.0355C51.2192 54.9949 50.9553 54.9543 50.6914 54.934C50.4275 54.9137 50.1636 54.8934 49.8996 54.8934C49.2703 54.8934 48.8034 54.9949 48.4583 55.1979C48.1132 55.4009 47.9508 55.8069 47.9508 56.4362C47.9508 57.0047 48.1132 57.4107 48.4177 57.634C48.7425 57.8573 49.1891 57.9588 49.7981 57.9588C50.1229 57.9588 50.4072 57.9385 50.6914 57.8979C50.9756 57.8573 51.2192 57.8167 51.4425 57.7558V55.0355H51.4628Z" fill="#01174F"/>
<path d="M59.7657 59.5625L55.8477 45.1489H58.9334L61.5725 56.2128L64.4349 47.8286H67.0334L69.8958 56.3346C70.5454 54.8933 71.1138 53.2489 71.601 51.4422C72.0883 49.6151 72.474 47.5241 72.7785 45.1692H75.6003C75.1943 47.9504 74.6259 50.5286 73.9153 52.8835C73.2048 55.2384 72.3319 57.4715 71.2762 59.6031H68.5153L65.6935 51.1174L62.689 59.6031H59.7657V59.5625Z" fill="#01174F"/>
<path d="M77.3055 49.2498C77.7725 49.128 78.3409 49.0468 78.9499 48.9656C79.5792 48.8844 80.168 48.8438 80.7567 48.8438C81.4266 48.8438 82.0559 48.9047 82.6243 49.0265C83.2131 49.1483 83.7206 49.331 84.1469 49.6152C84.5732 49.8994 84.9183 50.2445 85.1822 50.6911C85.4258 51.1377 85.568 51.6859 85.568 52.3355V59.0347C85.304 59.1159 84.9995 59.2174 84.6544 59.2986C84.3093 59.3798 83.9236 59.461 83.5176 59.5422C83.1116 59.6235 82.6852 59.6844 82.2589 59.725C81.8123 59.7656 81.3657 59.8062 80.9191 59.8062C80.2289 59.8062 79.5995 59.7453 79.0514 59.6438C78.5033 59.5422 78.0161 59.3392 77.6304 59.0753C77.2446 58.7911 76.9401 58.446 76.7371 57.9994C76.5341 57.5528 76.4326 56.9843 76.4326 56.3144C76.4326 55.6851 76.5341 55.1776 76.7574 54.7716C76.9807 54.3656 77.2649 54.0204 77.6507 53.7768C78.0364 53.5332 78.483 53.3505 79.0108 53.249C79.5386 53.1475 80.0868 53.1069 80.6958 53.1069C81.0815 53.1069 81.4469 53.1272 81.7717 53.1475C82.0965 53.1678 82.401 53.2287 82.6852 53.2693V52.437C82.6852 51.8483 82.5025 51.4422 82.1371 51.2392C81.7717 51.0362 81.2642 50.9347 80.6146 50.9347C80.107 50.9347 79.5792 50.9753 78.9905 51.0362C78.4221 51.1174 77.9146 51.1986 77.4882 51.3001L77.3055 49.2498ZM82.6649 55.0355C82.4213 54.9949 82.1574 54.9543 81.8935 54.934C81.6296 54.9137 81.3657 54.8934 81.1018 54.8934C80.4725 54.8934 80.0055 54.9949 79.6604 55.1979C79.3153 55.4009 79.1529 55.8069 79.1529 56.4362C79.1529 57.0047 79.3153 57.4107 79.6198 57.634C79.9446 57.8573 80.3913 57.9588 81.0003 57.9588C81.3251 57.9588 81.6093 57.9385 81.8935 57.8979C82.1777 57.8573 82.4213 57.8167 82.6446 57.7558V55.0355H82.6649Z" fill="#01174F"/>
<path d="M86.6846 49.0669H89.6891L92.3079 57.0654C92.5312 56.5376 92.7748 56.0098 93.0184 55.4211C93.262 54.8527 93.4853 54.2436 93.7289 53.594C93.9522 52.9444 94.1755 52.2338 94.3785 51.4827C94.5816 50.7316 94.744 49.9196 94.8861 49.0466H97.5455C97.2613 50.9143 96.7943 52.7008 96.1447 54.4263C95.4748 56.1519 94.6831 57.8572 93.7289 59.5421H90.5011L86.6846 49.0669Z" fill="#01174F"/>
<path d="M101.625 55.1167C101.645 55.5836 101.706 55.9693 101.808 56.2941C101.909 56.6189 102.092 56.8829 102.315 57.1062C102.539 57.3092 102.843 57.4716 103.208 57.5731C103.574 57.6746 104.041 57.7152 104.609 57.7152C104.833 57.7152 105.096 57.6949 105.36 57.6746C105.645 57.6543 105.908 57.6137 106.193 57.5731C106.477 57.5325 106.72 57.4919 106.964 57.431C107.208 57.3904 107.411 57.3295 107.553 57.2889L107.817 59.2783C107.37 59.4204 106.822 59.5422 106.172 59.6438C105.523 59.7453 104.873 59.7859 104.183 59.7859C103.351 59.7859 102.599 59.7047 101.909 59.5422C101.219 59.3798 100.63 59.0956 100.123 58.6693C99.6152 58.2633 99.2295 57.6949 98.9656 56.9844C98.6814 56.2738 98.5596 55.3806 98.5596 54.3047C98.5596 53.2693 98.6814 52.3964 98.925 51.6859C99.1686 50.9753 99.4934 50.4069 99.94 50.0009C100.387 49.5746 100.914 49.2904 101.523 49.1077C102.153 48.925 102.843 48.8438 103.614 48.8438C104.386 48.8438 105.056 48.9453 105.624 49.1483C106.172 49.3513 106.639 49.6558 106.984 50.0415C107.329 50.4272 107.593 50.8941 107.756 51.4422C107.918 51.9904 107.999 52.6197 107.999 53.3099V55.1167H101.625ZM105.32 53.4114C105.32 52.4979 105.178 51.828 104.914 51.3813C104.65 50.9347 104.183 50.7114 103.533 50.7114C102.863 50.7114 102.376 50.9347 102.112 51.4017C101.828 51.8483 101.686 52.5385 101.666 53.4317H105.32V53.4114Z" fill="#01174F"/>
<path d="M27.3446 62.7089H26.0859V62.2419H29.1717V62.7089H27.8927V66.4239H27.3446V62.7089Z" fill="#01174F"/>
<path d="M34.5718 64.475H32.9477V65.9772H34.7545V66.4239H32.4199V62.2622H34.6733V62.7088H32.968V64.0284H34.5921V64.475H34.5718Z" fill="#01174F"/>
<path d="M41.1495 66.2819C40.9465 66.3834 40.5608 66.4849 40.0533 66.4849C38.8759 66.4849 38.0029 65.7338 38.0029 64.3736C38.0029 63.0744 38.8962 62.1812 40.1751 62.1812C40.7029 62.1812 41.0277 62.2827 41.1698 62.3639L41.048 62.8105C40.845 62.709 40.5608 62.6278 40.2157 62.6278C39.2413 62.6278 38.5917 63.2571 38.5917 64.3533C38.5917 65.3684 39.1804 66.0383 40.1954 66.0383C40.5202 66.0383 40.8653 65.9774 41.0683 65.8556L41.1495 66.2819Z" fill="#01174F"/>
<path d="M45.1479 62.2622V64.0081H47.1577V62.2622H47.7058V66.4239H47.1577V64.475H45.1479V66.4239H44.6201V62.2622H45.1479Z" fill="#01174F"/>
<path d="M51.4209 66.4239V62.2622H52.0096L53.3495 64.3735C53.654 64.8607 53.8976 65.3073 54.1006 65.7336H54.1209C54.0803 65.1855 54.06 64.678 54.06 64.0284V62.2825H54.5675V66.4442H54.0194L52.6998 64.3329C52.4156 63.866 52.1314 63.399 51.9284 62.9321H51.9081C51.9487 63.4599 51.9487 63.9675 51.9487 64.6577V66.4442H51.4209V66.4239Z" fill="#01174F"/>
<path d="M61.8353 64.2924C61.8353 65.7338 60.9624 66.4849 59.9067 66.4849C58.8105 66.4849 58.0391 65.6323 58.0391 64.3736C58.0391 63.0541 58.8714 62.1812 59.9676 62.1812C61.0842 62.1812 61.8353 63.0541 61.8353 64.2924ZM58.5872 64.3736C58.5872 65.2669 59.0744 66.0586 59.9067 66.0586C60.7594 66.0586 61.2466 65.2669 61.2466 64.333C61.2466 63.5007 60.8203 62.6481 59.927 62.6481C59.0338 62.6278 58.5872 63.4398 58.5872 64.3736Z" fill="#01174F"/>
<path d="M65.3066 62.2622H65.8345V65.9772H67.6209V66.4239H65.3066V62.2622Z" fill="#01174F"/>
<path d="M74.3207 64.2924C74.3207 65.7338 73.4477 66.4849 72.3921 66.4849C71.2958 66.4849 70.5244 65.6323 70.5244 64.3736C70.5244 63.0541 71.3567 62.1812 72.453 62.1812C73.5898 62.1812 74.3207 63.0541 74.3207 64.2924ZM71.0928 64.3736C71.0928 65.2669 71.5801 66.0586 72.4124 66.0586C73.265 66.0586 73.7522 65.2669 73.7522 64.333C73.7522 63.5007 73.3259 62.6481 72.4327 62.6481C71.5395 62.6278 71.0928 63.4398 71.0928 64.3736Z" fill="#01174F"/>
<path d="M80.9787 66.2415C80.7351 66.3227 80.2681 66.4648 79.6997 66.4648C79.0704 66.4648 78.5426 66.3024 78.1366 65.9167C77.7712 65.5716 77.5479 65.0234 77.5479 64.3738C77.5479 63.1355 78.4005 62.2219 79.8012 62.2219C80.2884 62.2219 80.6539 62.3234 80.8366 62.4046L80.7148 62.8512C80.4915 62.7497 80.2072 62.6685 79.8012 62.6685C78.7862 62.6685 78.1163 63.2979 78.1163 64.3535C78.1163 65.4091 78.7456 66.0385 79.72 66.0385C80.0651 66.0385 80.3087 65.9979 80.4305 65.937V64.6986H79.5779V64.2723H80.9584V66.2415H80.9787Z" fill="#01174F"/>
<path d="M85.1206 62.2622V66.4239H84.5928V62.2622H85.1206Z" fill="#01174F"/>
<path d="M91.0074 64.475H89.3833V65.9772H91.1901V66.4239H88.8555V62.2622H91.1089V62.7088H89.4036V64.0284H91.0277V64.475H91.0074Z" fill="#01174F"/>
<path d="M94.6011 65.7744C94.8447 65.9165 95.1898 66.0383 95.5755 66.0383C96.1236 66.0383 96.4485 65.7541 96.4485 65.3278C96.4485 64.9421 96.2251 64.7188 95.6567 64.4954C94.9665 64.2518 94.5605 63.9067 94.5605 63.318C94.5605 62.6684 95.0883 62.1812 95.9003 62.1812C96.3266 62.1812 96.6312 62.2827 96.8139 62.3842L96.6718 62.8308C96.5297 62.7496 96.2658 62.6278 95.88 62.6278C95.3116 62.6278 95.0883 62.9729 95.0883 63.2571C95.0883 63.6428 95.3319 63.8458 95.9206 64.0691C96.6312 64.333 96.9763 64.6781 96.9763 65.2872C96.9763 65.9368 96.5094 66.4849 95.5146 66.4849C95.1086 66.4849 94.6823 66.3631 94.459 66.221L94.6011 65.7744Z" fill="#01174F"/>
</svg>
