<svg width="60" height="60" viewBox="0 0 60 60" fill="none" xmlns="http://www.w3.org/2000/svg">
<rect width="60" height="60" rx="20" fill="white"/>
<path d="M30.5701 34.4964C31.5677 35.4941 31.5677 37.2043 30.5701 38.2019L28.5036 40.2684C27.506 41.266 25.7958 41.266 24.7981 40.2684L15.7482 31.1473C14.7506 30.1496 14.7506 28.4394 15.7482 27.4418L17.8147 25.3753C18.8124 24.3776 20.5226 24.3776 21.5202 25.3753L30.5701 34.4964Z" fill="#CBD2E5"/>
<path d="M38.4799 18.7482C39.4775 17.7506 41.1878 17.7506 42.1854 18.7482L44.2519 20.8147C45.2495 21.8124 45.2495 23.5226 44.2519 24.5202L28.5749 40.1259C27.5773 41.1236 25.867 41.1236 24.8694 40.1259L22.8029 38.0594C21.8053 37.0618 21.8053 35.3516 22.8029 34.354L38.4799 18.7482Z" fill="#E1E5F0"/>
</svg>
