<svg width="101" height="62" viewBox="0 0 101 62" fill="none" xmlns="http://www.w3.org/2000/svg">
<path d="M65.1164 21.7869L61.9905 24.9127C61.8776 25.0257 61.7646 25.1198 61.6516 25.214L50.4286 5.76212C49.8826 4.80177 48.9599 4.70762 48.6021 4.70762C48.2443 4.70762 47.3216 4.80177 46.7755 5.76212L39.9777 17.55C37.3791 17.8136 34.95 18.7928 32.8975 20.3934L42.7081 3.40831C43.9321 1.28047 46.1541 0 48.6021 0C51.0689 0 53.272 1.28047 54.5148 3.40831L65.1164 21.7869Z" fill="#F2BC46"/>
<path d="M67.62 26.118L67.2245 26.3439L63.8727 28.2835L63.5526 28.4718L62.6299 26.8712C62.8747 26.6829 63.1195 26.4757 63.3454 26.2498L66.1135 23.4817L67.0927 25.1764L67.5823 26.0238L67.62 26.118Z" fill="#F2BC46"/>
<path d="M51.747 24.8185C50.9938 24.31 43.8759 19.7719 36.9274 25.6282C36.7015 25.7977 36.4943 25.986 36.2872 26.1931L26.7213 35.759C25.7986 36.6817 24.311 36.6817 23.3883 35.759C22.4656 34.8363 22.4656 33.3487 23.3883 32.426L32.9542 22.8601C35.195 20.6193 38.1891 19.3765 41.3526 19.3765C44.3278 19.3765 47.1335 20.4686 49.3179 22.4458L49.3367 22.427L51.747 24.8185Z" fill="#EA55AC"/>
<path d="M68.0159 28.2269L66.6601 29.5827C64.4193 31.8236 61.4252 33.0664 58.2617 33.0664C55.0793 33.0664 52.1041 31.8236 49.8445 29.5827L48.451 28.1893L46.455 26.1933C43.8564 23.5946 39.7513 23.4063 36.9268 25.6283C43.8752 19.7721 50.9931 24.3102 51.7463 24.8186L53.1775 26.2497C53.8365 26.9088 54.5897 27.4172 55.3806 27.7562C56.5858 28.5094 62.1219 31.6353 68.0159 28.2269Z" fill="url(#paint0_linear_71_6)"/>
<path d="M76.2259 16.6837C77.1486 17.6064 77.1486 19.094 76.2259 20.0167L68.0158 28.2268C62.1219 31.6351 56.5857 28.5093 55.3994 27.756C58.0357 28.9047 61.1992 28.3963 63.3459 26.2496L72.9118 16.6837C73.8156 15.761 75.3032 15.761 76.2259 16.6837Z" fill="#EA55AC"/>
<path d="M76.2259 16.6837C77.1486 17.6064 77.1486 19.094 76.2259 20.0167L68.0158 28.2268C62.1219 31.6351 56.5857 28.5093 55.3994 27.756C58.0357 28.9047 61.1992 28.3963 63.3459 26.2496L72.9118 16.6837C73.8156 15.761 75.3032 15.761 76.2259 16.6837Z" fill="url(#paint1_linear_71_6)"/>
<path d="M2.73042 55.2484H0V46.5676C0 45.8332 0.0941524 45.1553 0.282457 44.5527C0.470762 43.9501 0.790882 43.4417 1.20515 43.0086C1.61942 42.5755 2.1655 42.2554 2.82457 42.0106C3.48364 41.7846 4.29335 41.6528 5.2537 41.6528C6.21406 41.6528 7.02377 41.7658 7.70166 42.0106C8.37956 42.2366 8.92565 42.5755 9.35875 43.0086C9.79185 43.4417 10.0931 43.9501 10.3003 44.5527C10.4886 45.1553 10.5827 45.8332 10.5827 46.5676V55.2484H7.79582V50.5408H2.73042V55.2484ZM7.79582 48.5636V46.4169C7.79582 45.5696 7.60751 44.9105 7.2309 44.4021C6.85429 43.9125 6.19523 43.6489 5.2537 43.6489C4.31218 43.6489 3.65311 43.8937 3.2765 44.4021C2.89989 44.8917 2.71159 45.5696 2.71159 46.4169V48.5636H7.79582Z" fill="white"/>
<path d="M16.2699 40.5608V55.2486H13.5771V40.5608H16.2699Z" fill="white"/>
<path d="M19.2639 46.0594C19.8854 45.8523 20.5821 45.664 21.3918 45.5133C22.1827 45.3627 22.9547 45.2874 23.7079 45.2874C24.3858 45.2874 25.0261 45.3815 25.6098 45.551C26.1936 45.7204 26.702 46.0029 27.1163 46.3983C27.5305 46.7938 27.8695 47.3022 28.1143 47.9236C28.3591 48.545 28.472 49.3171 28.472 50.2398C28.472 51.2378 28.3591 52.0851 28.1143 52.7442C27.8883 53.4221 27.5682 53.9494 27.1539 54.3448C26.7396 54.7402 26.2689 55.0227 25.7228 55.1922C25.1767 55.3617 24.5741 55.437 23.9527 55.437C23.6514 55.437 23.3125 55.4181 22.9359 55.3617C22.5593 55.324 22.2392 55.2675 21.9379 55.211V58.9959H19.2451V46.0594H19.2639ZM21.9567 53.2903C22.258 53.3656 22.5593 53.4221 22.8229 53.4598C23.1054 53.5163 23.3878 53.5351 23.6891 53.5351C24.0092 53.5351 24.2917 53.4786 24.5365 53.3845C24.7813 53.2903 24.9884 53.102 25.1579 52.8572C25.3274 52.6124 25.4592 52.2735 25.5345 51.8592C25.6286 51.4449 25.6663 50.8988 25.6663 50.2586C25.6663 49.6372 25.6098 49.1476 25.5345 48.7522C25.4403 48.3567 25.3085 48.0554 25.1391 47.8295C24.9696 47.6035 24.7624 47.4529 24.4988 47.3587C24.254 47.2646 23.9716 47.2269 23.6703 47.2269C23.4067 47.2269 23.1054 47.2457 22.7664 47.3022C22.4463 47.3587 22.1638 47.3964 21.9567 47.4529V53.2903Z" fill="white"/>
<path d="M30.8262 40.5608H33.5189V45.532C33.8767 45.4567 34.2157 45.4002 34.5734 45.3626C34.9312 45.3249 35.289 45.2872 35.6279 45.2872C36.2305 45.2872 36.7954 45.3437 37.3039 45.4756C37.8123 45.5885 38.2454 45.7957 38.622 46.0593C38.9986 46.3417 39.2811 46.6995 39.4882 47.1515C39.6953 47.6034 39.8083 48.1683 39.8083 48.8274V55.2486H37.1155V48.9404C37.1155 48.2813 36.9461 47.8294 36.5883 47.5846C36.2305 47.3398 35.7974 47.2268 35.2702 47.2268C35.0065 47.2268 34.7052 47.2456 34.3663 47.3021C34.0462 47.3586 33.7637 47.3963 33.5378 47.4528V55.2486H30.845V40.5608H30.8262Z" fill="white"/>
<path d="M42.7648 45.6828C43.1979 45.5698 43.7251 45.4945 44.2901 45.4191C44.8738 45.3438 45.4199 45.3062 45.966 45.3062C46.5874 45.3062 47.1711 45.3626 47.6984 45.4756C48.2445 45.5886 48.7152 45.7581 49.1107 46.0217C49.5061 46.2853 49.8262 46.6055 50.071 47.0197C50.297 47.434 50.4288 47.9424 50.4288 48.545V54.7591C50.184 54.8344 49.9015 54.9285 49.5814 55.0038C49.2613 55.0792 48.9035 55.1545 48.5269 55.2298C48.1503 55.3051 47.7549 55.3616 47.3594 55.3993C46.9452 55.437 46.5309 55.4746 46.1166 55.4746C45.4764 55.4746 44.8926 55.4181 44.3842 55.324C43.8758 55.2298 43.4239 55.0415 43.0661 54.7967C42.7083 54.5331 42.4258 54.213 42.2375 53.7987C42.0492 53.3844 41.9551 52.8572 41.9551 52.2358C41.9551 51.652 42.0492 51.1813 42.2564 50.8047C42.4635 50.428 42.7271 50.1079 43.0849 49.882C43.4427 49.656 43.857 49.4865 44.3465 49.3924C44.8361 49.2982 45.3446 49.2606 45.9095 49.2606C46.2673 49.2606 46.6062 49.2794 46.9075 49.2982C47.2088 49.317 47.4912 49.3735 47.7549 49.4112V48.6391C47.7549 48.0931 47.5854 47.7165 47.2464 47.5281C46.9075 47.3398 46.4367 47.2457 45.8342 47.2457C45.3634 47.2457 44.8738 47.2833 44.3277 47.3398C43.8005 47.4152 43.3297 47.4905 42.9343 47.5846L42.7648 45.6828ZM47.736 51.0494C47.5101 51.0118 47.2653 50.9741 47.0205 50.9553C46.7757 50.9365 46.5309 50.9176 46.2861 50.9176C45.7023 50.9176 45.2692 51.0118 44.9491 51.2001C44.629 51.3884 44.4784 51.765 44.4784 52.3488C44.4784 52.876 44.629 53.2526 44.9115 53.4597C45.2127 53.6669 45.627 53.761 46.1919 53.761C46.4932 53.761 46.7568 53.7422 47.0205 53.7045C47.2841 53.6669 47.5101 53.6292 47.7172 53.5727V51.0494H47.736Z" fill="white"/>
<path d="M55.437 55.2485L51.8027 41.8789H54.665L57.1129 52.1415L59.768 44.3645H62.1783L64.8334 52.2545C65.436 50.9175 65.9632 49.3923 66.4152 47.7164C66.8671 46.0216 67.2249 44.0821 67.5074 41.8977H70.1248C69.7482 44.4775 69.2209 46.869 68.5619 49.0533C67.9028 51.2377 67.0931 53.309 66.1139 55.2862H63.553L60.9355 47.4151L58.1486 55.2862H55.437V55.2485Z" fill="white"/>
<path d="M71.7062 45.6828C72.1393 45.5698 72.6665 45.4945 73.2315 45.4191C73.8152 45.3438 74.3613 45.3062 74.9074 45.3062C75.5288 45.3062 76.1125 45.3626 76.6398 45.4756C77.1859 45.5886 77.6566 45.7581 78.0521 46.0217C78.4475 46.2853 78.7676 46.6055 79.0124 47.0197C79.2384 47.434 79.3702 47.9424 79.3702 48.545V54.7591C79.1254 54.8344 78.8429 54.9285 78.5228 55.0038C78.2027 55.0792 77.8449 55.1545 77.4683 55.2298C77.0917 55.3051 76.6963 55.3616 76.3008 55.3993C75.8866 55.437 75.4723 55.4746 75.058 55.4746C74.4178 55.4746 73.834 55.4181 73.3256 55.324C72.8172 55.2298 72.3653 55.0415 72.0075 54.7967C71.6497 54.5331 71.3672 54.213 71.1789 53.7987C70.9906 53.3844 70.8965 52.8572 70.8965 52.2358C70.8965 51.652 70.9906 51.1813 71.1978 50.8047C71.4049 50.428 71.6685 50.1079 72.0263 49.882C72.3841 49.656 72.7984 49.4865 73.2879 49.3924C73.7775 49.2982 74.286 49.2606 74.8509 49.2606C75.2087 49.2606 75.5476 49.2794 75.8489 49.2982C76.1502 49.317 76.4326 49.3735 76.6963 49.4112V48.6391C76.6963 48.0931 76.5268 47.7165 76.1878 47.5281C75.8489 47.3398 75.3781 47.2457 74.7756 47.2457C74.3048 47.2457 73.8152 47.2833 73.2691 47.3398C72.7419 47.4152 72.2711 47.4905 71.8757 47.5846L71.7062 45.6828ZM76.6774 51.0494C76.4515 51.0118 76.2067 50.9741 75.9619 50.9553C75.7171 50.9365 75.4723 50.9176 75.2275 50.9176C74.6437 50.9176 74.2106 51.0118 73.8905 51.2001C73.5704 51.3884 73.4198 51.765 73.4198 52.3488C73.4198 52.876 73.5704 53.2526 73.8529 53.4597C74.1541 53.6669 74.5684 53.761 75.1333 53.761C75.4346 53.761 75.6982 53.7422 75.9619 53.7045C76.2255 53.6669 76.4515 53.6292 76.6586 53.5727V51.0494H76.6774Z" fill="white"/>
<path d="M80.4072 45.5132H83.1941L85.6233 52.9324C85.8304 52.4428 86.0564 51.9532 86.2823 51.4072C86.5083 50.8799 86.7154 50.315 86.9414 49.7124C87.1485 49.1098 87.3557 48.4508 87.544 47.754C87.7323 47.0573 87.8829 46.3041 88.0147 45.4944H90.4815C90.2179 47.2268 89.7848 48.8839 89.1822 50.4845C88.5608 52.0851 87.8264 53.6668 86.9414 55.2297H83.9474L80.4072 45.5132Z" fill="white"/>
<path d="M94.2653 51.1248C94.2841 51.5579 94.3406 51.9156 94.4348 52.2169C94.5289 52.5182 94.6984 52.763 94.9055 52.9702C95.1126 53.1585 95.3951 53.3091 95.734 53.4033C96.073 53.4974 96.5061 53.5351 97.0334 53.5351C97.2405 53.5351 97.4853 53.5162 97.7301 53.4974C97.9937 53.4786 98.2385 53.4409 98.5021 53.4033C98.7658 53.3656 98.9917 53.3279 99.2177 53.2714C99.4436 53.2338 99.632 53.1773 99.7638 53.1396L100.009 54.985C99.5943 55.1168 99.0859 55.2298 98.4833 55.324C97.8807 55.4181 97.2781 55.4558 96.6379 55.4558C95.8659 55.4558 95.1691 55.3805 94.5289 55.2298C93.8887 55.0792 93.3426 54.8155 92.8718 54.4201C92.4011 54.0435 92.0433 53.5162 91.7985 52.8572C91.5349 52.1981 91.4219 51.3696 91.4219 50.3716C91.4219 49.4112 91.5349 48.6015 91.7608 47.9424C91.9868 47.2834 92.2881 46.7561 92.7023 46.3795C93.1166 45.9841 93.6062 45.7204 94.1711 45.5509C94.7549 45.3815 95.3951 45.3062 96.1107 45.3062C96.8262 45.3062 97.4476 45.4003 97.9749 45.5886C98.4833 45.7769 98.9164 46.0594 99.2365 46.4172C99.5566 46.7749 99.8014 47.208 99.9521 47.7165C100.103 48.2249 100.178 48.8086 100.178 49.4489V51.1248H94.2653ZM97.6924 49.543C97.6924 48.6956 97.5606 48.0742 97.3158 47.66C97.071 47.2457 96.6379 47.0386 96.0353 47.0386C95.4139 47.0386 94.962 47.2457 94.7172 47.6788C94.4536 48.0931 94.3218 48.7333 94.3029 49.5618H97.6924V49.543Z" fill="white"/>
<path d="M25.3648 58.1672H24.1973V57.7341H27.0595V58.1672H25.8732V61.6132H25.3648V58.1672Z" fill="#878787"/>
<path d="M32.0683 59.8054H30.5619V61.1989H32.2378V61.6132H30.0723V57.7529H32.1624V58.1672H30.5807V59.3912H32.0871V59.8054H32.0683Z" fill="#878787"/>
<path d="M38.1697 61.4815C37.9814 61.5756 37.6236 61.6698 37.1529 61.6698C36.0607 61.6698 35.251 60.9731 35.251 59.7114C35.251 58.5063 36.0795 57.6777 37.2658 57.6777C37.7554 57.6777 38.0567 57.7719 38.1885 57.8472L38.0755 58.2615C37.8872 58.1673 37.6236 58.092 37.3035 58.092C36.3996 58.092 35.7971 58.6758 35.7971 59.6926C35.7971 60.6341 36.3431 61.2555 37.2847 61.2555C37.586 61.2555 37.9061 61.199 38.0944 61.086L38.1697 61.4815Z" fill="#878787"/>
<path d="M41.8783 57.7529V59.3723H43.7425V57.7529H44.2509V61.6132H43.7425V59.8054H41.8783V61.6132H41.3887V57.7529H41.8783Z" fill="#878787"/>
<path d="M47.6973 61.6132V57.7529H48.2433L49.4862 59.7113C49.7686 60.1632 49.9946 60.5775 50.1829 60.9729H50.2017C50.1641 60.4645 50.1452 59.9937 50.1452 59.3912V57.7718H50.616V61.632H50.1076L48.8836 59.6736C48.62 59.2405 48.3563 58.8074 48.168 58.3743H48.1492C48.1869 58.8639 48.1869 59.3347 48.1869 59.9749V61.632H47.6973V61.6132Z" fill="#878787"/>
<path d="M57.3582 59.6361C57.3582 60.9731 56.5485 61.6698 55.5693 61.6698C54.5525 61.6698 53.8369 60.8789 53.8369 59.7114C53.8369 58.4874 54.609 57.6777 55.6258 57.6777C56.6615 57.6777 57.3582 58.4874 57.3582 59.6361ZM54.3453 59.7114C54.3453 60.54 54.7973 61.2744 55.5693 61.2744C56.3602 61.2744 56.8121 60.54 56.8121 59.6738C56.8121 58.9017 56.4167 58.1108 55.5881 58.1108C54.7596 58.092 54.3453 58.8452 54.3453 59.7114Z" fill="#878787"/>
<path d="M60.5781 57.7529H61.0677V61.1989H62.7248V61.6132H60.5781V57.7529Z" fill="#878787"/>
<path d="M68.9383 59.6361C68.9383 60.9731 68.1286 61.6698 67.1494 61.6698C66.1326 61.6698 65.417 60.8789 65.417 59.7114C65.417 58.4874 66.189 57.6777 67.2059 57.6777C68.2604 57.6777 68.9383 58.4874 68.9383 59.6361ZM65.9442 59.7114C65.9442 60.54 66.3962 61.2744 67.1682 61.2744C67.9591 61.2744 68.411 60.54 68.411 59.6738C68.411 58.9017 68.0156 58.1108 67.1871 58.1108C66.3585 58.092 65.9442 58.8452 65.9442 59.7114Z" fill="#878787"/>
<path d="M75.115 61.4438C74.889 61.5191 74.4559 61.6509 73.9286 61.6509C73.3449 61.6509 72.8553 61.5003 72.4787 61.1425C72.1397 60.8224 71.9326 60.3139 71.9326 59.7114C71.9326 58.5627 72.7235 57.7153 74.0228 57.7153C74.4747 57.7153 74.8137 57.8095 74.9831 57.8848L74.8702 58.2991C74.663 58.2049 74.3994 58.1296 74.0228 58.1296C73.0813 58.1296 72.4599 58.7133 72.4599 59.6925C72.4599 60.6717 73.0436 61.2555 73.9475 61.2555C74.2676 61.2555 74.4936 61.2178 74.6065 61.1613V60.0127H73.8157V59.6172H75.0961V61.4438H75.115Z" fill="#878787"/>
<path d="M78.9554 57.7529V61.6132H78.4658V57.7529H78.9554Z" fill="#878787"/>
<path d="M84.4169 59.8054H82.9105V61.1989H84.5864V61.6132H82.4209V57.7529H84.5111V58.1672H82.9293V59.3912H84.4358V59.8054H84.4169Z" fill="#878787"/>
<path d="M87.75 61.0107C87.9759 61.1425 88.2961 61.2555 88.6538 61.2555C89.1623 61.2555 89.4635 60.9919 89.4635 60.5965C89.4635 60.2387 89.2564 60.0315 88.7292 59.8244C88.0889 59.5984 87.7123 59.2783 87.7123 58.7322C87.7123 58.1297 88.2019 57.6777 88.9551 57.6777C89.3506 57.6777 89.633 57.7719 89.8025 57.866L89.6707 58.2803C89.5389 58.205 89.2941 58.092 88.9363 58.092C88.409 58.092 88.2019 58.4121 88.2019 58.6757C88.2019 59.0335 88.4279 59.2218 88.974 59.429C89.633 59.6738 89.9531 59.9939 89.9531 60.5588C89.9531 61.1614 89.52 61.6698 88.5974 61.6698C88.2207 61.6698 87.8253 61.5568 87.6182 61.425L87.75 61.0107Z" fill="#878787"/>
<defs>
<linearGradient id="paint0_linear_71_6" x1="58.1123" y1="34.4574" x2="44.3425" y2="16.0695" gradientUnits="userSpaceOnUse">
<stop offset="0.4338" stop-color="#EA55AC"/>
<stop offset="0.6486" stop-color="#CD4A96"/>
<stop offset="0.8628" stop-color="#B74284"/>
<stop offset="1" stop-color="#AF3F7E"/>
</linearGradient>
<linearGradient id="paint1_linear_71_6" x1="78.6492" y1="9.18712" x2="54.1883" y2="37.1825" gradientUnits="userSpaceOnUse">
<stop offset="0.4338" stop-color="#EA55AC"/>
<stop offset="0.6486" stop-color="#CD4A96"/>
<stop offset="0.8628" stop-color="#B74284"/>
<stop offset="1" stop-color="#AF3F7E"/>
</linearGradient>
</defs>
</svg>
