<svg width="60" height="60" viewBox="0 0 60 60" fill="none" xmlns="http://www.w3.org/2000/svg">
<rect width="60" height="60" rx="20" fill="white"/>
<path d="M20.7406 29.5776L30.4227 39.2597C31.0273 39.8643 32.0077 39.8643 32.6123 39.2597C32.9029 38.9694 33.066 38.5752 33.066 38.1644V33.1282L42.357 23.8373L43.1312 24.6115C43.5589 25.039 44.252 25.039 44.6797 24.6115C45.1071 24.1838 45.1071 23.4907 44.6797 23.063L36.9372 15.3206C36.5095 14.8931 35.8164 14.8931 35.3887 15.3206C34.9613 15.7483 34.9613 16.4414 35.3887 16.8691L36.163 17.6433L26.872 26.9343H21.8359C21.4251 26.9343 21.0309 27.0973 20.7406 27.3879C20.136 27.9926 20.136 28.9727 20.7406 29.5776Z" fill="#CBD2E5"/>
<path d="M26.3556 35.1928L18.5693 42.9791C17.5846 43.9638 16.3509 44.6622 15 44.9999C15.3377 43.649 16.0361 42.4153 17.0208 41.4306L24.8071 33.6443L26.3556 35.1928Z" fill="#E1E5F0"/>
</svg>
